{"asset":{"generator":"3D Builder","version":"2.0"},"scene":0,"scenes":[{"nodes":[0]}],"nodes":[{"children":[1,2,3,4,5,6,7,8,9,10,11,12,13]},{"mesh":0,"matrix":[39.370079040527344,0,0,0,0,-4.6932791519793682E-6,-39.370075225830078,0,0,39.370075225830078,-4.6932791519793682E-6,0,0.014686494134366512,0.18099997937679291,-0.27611181139945984,1]},{"mesh":1,"matrix":[39.370079040527344,0,0,0,0,-4.6932791519793682E-6,-39.370075225830078,0,0,39.370075225830078,-4.6932791519793682E-6,0,0.014686494134366512,0.18099997937679291,-0.27611181139945984,1]},{"mesh":2,"matrix":[39.370079040527344,0,0,0,0,-4.6932791519793682E-6,-39.370075225830078,0,0,39.370075225830078,-4.6932791519793682E-6,0,0.014686494134366512,0.18099997937679291,-0.27611181139945984,1]},{"mesh":3,"matrix":[39.370079040527344,0,0,0,0,-4.6932791519793682E-6,-39.370075225830078,0,0,39.370075225830078,-4.6932791519793682E-6,0,0.014686494134366512,0.18099997937679291,-0.27611181139945984,1]},{"mesh":4,"matrix":[39.370079040527344,0,0,0,0,-4.6932791519793682E-6,-39.370075225830078,0,0,39.370075225830078,-4.6932791519793682E-6,0,0.014686494134366512,0.18099997937679291,-0.27611181139945984,1]},{"mesh":5,"matrix":[39.370079040527344,0,0,0,0,-4.6932791519793682E-6,-39.370075225830078,0,0,39.370075225830078,-4.6932791519793682E-6,0,0.014686494134366512,0.18099997937679291,-0.27611181139945984,1]},{"mesh":6,"matrix":[39.370079040527344,0,0,0,0,-4.6932791519793682E-6,-39.370075225830078,0,0,39.370075225830078,-4.6932791519793682E-6,0,0.014686494134366512,0.18099997937679291,-0.27611181139945984,1]},{"mesh":7,"matrix":[39.370079040527344,0,0,0,0,-4.6932791519793682E-6,-39.370075225830078,0,0,39.370075225830078,-4.6932791519793682E-6,0,0.014686494134366512,0.18099997937679291,-0.27611181139945984,1]},{"mesh":8,"matrix":[39.370079040527344,0,0,0,0,-4.6932791519793682E-6,-39.370075225830078,0,0,39.370075225830078,-4.6932791519793682E-6,0,0.014686494134366512,0.18099997937679291,-0.27611181139945984,1]},{"mesh":9,"matrix":[39.370079040527344,0,0,0,0,-4.6932791519793682E-6,-39.370075225830078,0,0,39.370075225830078,-4.6932791519793682E-6,0,0.014686494134366512,0.18099997937679291,-0.27611181139945984,1]},{"mesh":10,"matrix":[39.370079040527344,0,0,0,0,-4.6932791519793682E-6,-39.370075225830078,0,0,39.370075225830078,-4.6932791519793682E-6,0,0.014686494134366512,0.18099997937679291,-0.27611181139945984,1]},{"mesh":11,"matrix":[39.370079040527344,0,0,0,0,-4.6932791519793682E-6,-39.370075225830078,0,0,39.370075225830078,-4.6932791519793682E-6,0,0.014686494134366512,0.18099997937679291,-0.27611181139945984,1]},{"mesh":12,"matrix":[39.370079040527344,0,0,0,0,-4.6932791519793682E-6,-39.370075225830078,0,0,39.370075225830078,-4.6932791519793682E-6,0,0.014686494134366512,0.18099997937679291,-0.27611181139945984,1]}],"meshes":[{"primitives":[{"attributes":{"POSITION":0,"TEXCOORD_0":1},"mode":4,"indices":2,"material":0}]},{"primitives":[{"attributes":{"POSITION":3,"TEXCOORD_0":4},"mode":4,"indices":5,"material":0}]},{"primitives":[{"attributes":{"POSITION":6,"TEXCOORD_0":7},"mode":4,"indices":8,"material":0}]},{"primitives":[{"attributes":{"POSITION":9,"TEXCOORD_0":10},"mode":4,"indices":11,"material":0}]},{"primitives":[{"attributes":{"POSITION":12,"TEXCOORD_0":13},"mode":4,"indices":14,"material":0}]},{"primitives":[{"attributes":{"POSITION":15,"TEXCOORD_0":16},"mode":4,"indices":17,"material":0}]},{"primitives":[{"attributes":{"POSITION":18,"TEXCOORD_0":19},"mode":4,"indices":20,"material":0}]},{"primitives":[{"attributes":{"POSITION":21,"TEXCOORD_0":22},"mode":4,"indices":23,"material":0}]},{"primitives":[{"attributes":{"POSITION":24,"TEXCOORD_0":25},"mode":4,"indices":26,"material":0}]},{"primitives":[{"attributes":{"POSITION":27,"TEXCOORD_0":28},"mode":4,"indices":29,"material":0}]},{"primitives":[{"attributes":{"POSITION":30,"TEXCOORD_0":31},"mode":4,"indices":32,"material":0}]},{"primitives":[{"attributes":{"POSITION":33,"TEXCOORD_0":34},"mode":4,"indices":35,"material":0}]},{"primitives":[{"attributes":{"POSITION":36,"TEXCOORD_0":37},"mode":4,"indices":38,"material":0}]}],"materials":[{"pbrMetallicRoughness":{"baseColorFactor":[1,1,1,1],"metallicFactor":1,"roughnessFactor":1,"baseColorTexture":{"index":0,"texCoord":0},"metallicRoughnessTexture":{"index":1,"texCoord":0}},"alphaMode":"OPAQUE"}],"textures":[{"source":0,"sampler":0},{"source":1,"sampler":0}],"images":[{"uri":"texture_0_6195987693227547908.png"},{"uri":"texture_1_17319628118832143767.png"}],"samplers":[{"magFilter":9729,"wrapS":10497,"wrapT":10497}],"accessors":[{"bufferView":0,"byteOffset":0,"count":7837,"componentType":5126,"type":"VEC3","min":[-0.00469158636406064,-0.009876093827188015,-0.0045974007807672024],"max":[0.0039406302385032177,-0.0034462981857359409,0.0067741903476417065]},{"bufferView":1,"byteOffset":0,"count":7837,"componentType":5126,"type":"VEC2"},{"bufferView":2,"byteOffset":0,"count":21288,"componentType":5125,"type":"SCALAR"},{"bufferView":3,"byteOffset":0,"count":77,"componentType":5126,"type":"VEC3","min":[-0.004664283711463213,-0.0034690499305725098,-0.002840924309566617],"max":[0.0039133266545832157,-0.0034599495120346546,0.0040211640298366547]},{"bufferView":4,"byteOffset":0,"count":77,"componentType":5126,"type":"VEC2"},{"bufferView":5,"byteOffset":0,"count":168,"componentType":5125,"type":"SCALAR"},{"bufferView":6,"byteOffset":0,"count":319,"componentType":5126,"type":"VEC3","min":[-0.0046870359219610691,-0.010581414215266705,-0.004556446336209774],"max":[0.0039360797964036465,-0.0095757627859711647,-0.002640704158693552]},{"bufferView":7,"byteOffset":0,"count":319,"componentType":5126,"type":"VEC2"},{"bufferView":8,"byteOffset":0,"count":1362,"componentType":5125,"type":"SCALAR"},{"bufferView":9,"byteOffset":0,"count":361,"componentType":5126,"type":"VEC3","min":[-0.00469158636406064,-0.010581414215266705,-0.0025269428733736277],"max":[0.0039451802149415016,-0.00958031415939331,0.0030428161844611168]},{"bufferView":10,"byteOffset":0,"count":361,"componentType":5126,"type":"VEC2"},{"bufferView":11,"byteOffset":0,"count":1656,"componentType":5125,"type":"SCALAR"},{"bufferView":12,"byteOffset":0,"count":705,"componentType":5126,"type":"VEC3","min":[-0.0042183389887213707,-0.0099989557638764381,0.003388651181012392],"max":[-0.0036085778847336769,-0.0098214875906705856,0.0039938618429005146]},{"bufferView":13,"byteOffset":0,"count":705,"componentType":5126,"type":"VEC2"},{"bufferView":14,"byteOffset":0,"count":3120,"componentType":5125,"type":"SCALAR"},{"bufferView":15,"byteOffset":0,"count":257,"componentType":5126,"type":"VEC3","min":[-0.0016427806112915277,-0.0099898548796772957,0.0034023025073111057],"max":[-0.001110376906581223,-0.0098214875906705856,0.00393015518784523]},{"bufferView":16,"byteOffset":0,"count":257,"componentType":5126,"type":"VEC2"},{"bufferView":17,"byteOffset":0,"count":1104,"componentType":5125,"type":"SCALAR"},{"bufferView":18,"byteOffset":0,"count":257,"componentType":5126,"type":"VEC3","min":[0.00021380606631282717,-0.0099898548796772957,0.0034023025073111057],"max":[0.00074620905797928572,-0.0098214875906705856,0.00393015518784523]},{"bufferView":19,"byteOffset":0,"count":257,"componentType":5126,"type":"VEC2"},{"bufferView":20,"byteOffset":0,"count":1104,"componentType":5125,"type":"SCALAR"},{"bufferView":21,"byteOffset":0,"count":259,"componentType":5126,"type":"VEC3","min":[0.00086907128570601344,-0.0099898548796772957,0.0034023025073111057],"max":[0.0014014750486239791,-0.0098214875906705856,0.00393015518784523]},{"bufferView":22,"byteOffset":0,"count":259,"componentType":5126,"type":"VEC2"},{"bufferView":23,"byteOffset":0,"count":1104,"componentType":5125,"type":"SCALAR"},{"bufferView":24,"byteOffset":0,"count":256,"componentType":5126,"type":"VEC3","min":[-0.0029442112427204847,-0.0099898548796772957,0.0034023025073111057],"max":[-0.0024118076544255018,-0.0098214875906705856,0.00393015518784523]},{"bufferView":25,"byteOffset":0,"count":256,"componentType":5126,"type":"VEC2"},{"bufferView":26,"byteOffset":0,"count":1104,"componentType":5125,"type":"SCALAR"},{"bufferView":27,"byteOffset":0,"count":258,"componentType":5126,"type":"VEC3","min":[0.0028303181752562523,-0.0099898548796772957,0.0034023025073111057],"max":[0.0033581710886210203,-0.0098214875906705856,0.00393015518784523]},{"bufferView":28,"byteOffset":0,"count":258,"componentType":5126,"type":"VEC2"},{"bufferView":29,"byteOffset":0,"count":1104,"componentType":5125,"type":"SCALAR"},{"bufferView":30,"byteOffset":0,"count":254,"componentType":5126,"type":"VEC3","min":[0.0015106858918443322,-0.0099898548796772957,0.0034023025073111057],"max":[0.002043088898062706,-0.0098214875906705856,0.00393015518784523]},{"bufferView":31,"byteOffset":0,"count":254,"componentType":5126,"type":"VEC2"},{"bufferView":32,"byteOffset":0,"count":1104,"componentType":5125,"type":"SCALAR"},{"bufferView":33,"byteOffset":0,"count":259,"componentType":5126,"type":"VEC3","min":[0.002170502208173275,-0.0099898548796772957,0.0034023025073111057],"max":[0.0027029057964682579,-0.0098214875906705856,0.00393015518784523]},{"bufferView":34,"byteOffset":0,"count":259,"componentType":5126,"type":"VEC2"},{"bufferView":35,"byteOffset":0,"count":1104,"componentType":5125,"type":"SCALAR"},{"bufferView":36,"byteOffset":0,"count":257,"componentType":5126,"type":"VEC3","min":[-0.00228439480997622,-0.0099898548796772957,0.0034023025073111057],"max":[-0.0017519915709272027,-0.0098214875906705856,0.00393015518784523]},{"bufferView":37,"byteOffset":0,"count":257,"componentType":5126,"type":"VEC2"},{"bufferView":38,"byteOffset":0,"count":1104,"componentType":5125,"type":"SCALAR"}],"bufferViews":[{"buffer":0,"byteOffset":0,"byteLength":94044,"byteStride":12,"target":34962},{"buffer":0,"byteOffset":94044,"byteLength":62696,"byteStride":8,"target":34962},{"buffer":0,"byteOffset":156740,"byteLength":85152,"target":34963},{"buffer":0,"byteOffset":241892,"byteLength":924,"byteStride":12,"target":34962},{"buffer":0,"byteOffset":242816,"byteLength":616,"byteStride":8,"target":34962},{"buffer":0,"byteOffset":243432,"byteLength":672,"target":34963},{"buffer":0,"byteOffset":244104,"byteLength":3828,"byteStride":12,"target":34962},{"buffer":0,"byteOffset":247932,"byteLength":2552,"byteStride":8,"target":34962},{"buffer":0,"byteOffset":250484,"byteLength":5448,"target":34963},{"buffer":0,"byteOffset":255932,"byteLength":4332,"byteStride":12,"target":34962},{"buffer":0,"byteOffset":260264,"byteLength":2888,"byteStride":8,"target":34962},{"buffer":0,"byteOffset":263152,"byteLength":6624,"target":34963},{"buffer":0,"byteOffset":269776,"byteLength":8460,"byteStride":12,"target":34962},{"buffer":0,"byteOffset":278236,"byteLength":5640,"byteStride":8,"target":34962},{"buffer":0,"byteOffset":283876,"byteLength":12480,"target":34963},{"buffer":0,"byteOffset":296356,"byteLength":3084,"byteStride":12,"target":34962},{"buffer":0,"byteOffset":299440,"byteLength":2056,"byteStride":8,"target":34962},{"buffer":0,"byteOffset":301496,"byteLength":4416,"target":34963},{"buffer":0,"byteOffset":305912,"byteLength":3084,"byteStride":12,"target":34962},{"buffer":0,"byteOffset":308996,"byteLength":2056,"byteStride":8,"target":34962},{"buffer":0,"byteOffset":311052,"byteLength":4416,"target":34963},{"buffer":0,"byteOffset":315468,"byteLength":3108,"byteStride":12,"target":34962},{"buffer":0,"byteOffset":318576,"byteLength":2072,"byteStride":8,"target":34962},{"buffer":0,"byteOffset":320648,"byteLength":4416,"target":34963},{"buffer":0,"byteOffset":325064,"byteLength":3072,"byteStride":12,"target":34962},{"buffer":0,"byteOffset":328136,"byteLength":2048,"byteStride":8,"target":34962},{"buffer":0,"byteOffset":330184,"byteLength":4416,"target":34963},{"buffer":0,"byteOffset":334600,"byteLength":3096,"byteStride":12,"target":34962},{"buffer":0,"byteOffset":337696,"byteLength":2064,"byteStride":8,"target":34962},{"buffer":0,"byteOffset":339760,"byteLength":4416,"target":34963},{"buffer":0,"byteOffset":344176,"byteLength":3048,"byteStride":12,"target":34962},{"buffer":0,"byteOffset":347224,"byteLength":2032,"byteStride":8,"target":34962},{"buffer":0,"byteOffset":349256,"byteLength":4416,"target":34963},{"buffer":0,"byteOffset":353672,"byteLength":3108,"byteStride":12,"target":34962},{"buffer":0,"byteOffset":356780,"byteLength":2072,"byteStride":8,"target":34962},{"buffer":0,"byteOffset":358852,"byteLength":4416,"target":34963},{"buffer":0,"byteOffset":363268,"byteLength":3084,"byteStride":12,"target":34962},{"buffer":0,"byteOffset":366352,"byteLength":2056,"byteStride":8,"target":34962},{"buffer":0,"byteOffset":368408,"byteLength":4416,"target":34963}],"buffers":[{"byteLength":372824,"uri":"electronic items.bin"}]}